<svg version="1.1" viewBox="0.0 0.0 1344.0 480.0" fill="none" stroke="none" stroke-linecap="square" stroke-miterlimit="10" xmlns:xlink="http://www.w3.org/1999/xlink" xmlns="http://www.w3.org/2000/svg"><clipPath id="g8a8649df56_0_9.0"><path d="m0 0l1344.0 0l0 480.0l-1344.0 0l0 -480.0z" clip-rule="nonzero"/></clipPath><g clip-path="url(#g8a8649df56_0_9.0)"><path fill="#efefef" d="m0 0l1344.0 0l0 480.0l-1344.0 0z" fill-rule="evenodd"/><path fill="#000000" fill-opacity="0.0" d="m241.6063 90.50394l860.78735 0l0 298.99213l-860.78735 0z" fill-rule="evenodd"/><path fill="#666666" d="m366.58643 341.5527q-25.796875 0 -47.125 -12.265625q-21.328125 -12.28125 -33.609375 -33.484375q-12.265625 -21.203125 -12.265625 -47.000015q0 -25.796875 12.265625 -47.0q12.28125 -21.203125 33.609375 -33.46875q21.328125 -12.28125 47.125 -12.28125q40.171875 0 66.46875 29.015625l-23.5625 22.8125q-17.109375 -20.09375 -42.65625 -20.09375q-16.609375 0 -30.25 7.578125q-13.640625 7.5625 -21.453125 21.453125q-7.8125 13.875 -7.8125 31.984375q0 18.093765 7.8125 31.98439q7.8125 13.890625 21.453125 21.453125q13.640625 7.5625 30.25 7.5625q28.03125 0 46.875 -23.3125l23.796875 22.578125q-13.140625 15.875 -31.125 24.1875q-17.96875 8.296875 -39.796875 8.296875zm131.19617 0q-20.09375 0 -32.984375 -11.78125q-12.890625 -11.78125 -12.890625 -30.875q0 -12.65625 6.6875 -22.328125q6.703125 -9.671875 18.359375 -14.875q11.65625 -5.203125 25.78125 -5.203125q19.59375 0 33.484375 5.703125l0 -5.453125q0 -10.42189 -7.8125 -16.85939q-7.8125 -6.453125 -20.953125 -6.453125q-8.9375 0 -17.25 4.09375q-8.296875 4.09375 -13.75 10.78125l-20.828125 -16.359375q9.171875 -11.90625 23.0625 -18.359375q13.890625 -6.453125 30.25 -6.453125q29.015625 0 44.140625 13.40625q15.125 13.390625 15.125 39.17189l0 77.875l-31.984375 0l0 -12.890625l-1.984375 0q-5.703125 7.4375 -15.0 12.15625q-9.296875 4.703125 -21.453125 4.703125zm7.6875 -25.296875q14.140625 0 22.4375 -9.046875q8.3125 -9.0625 8.3125 -21.203125q-12.640625 -5.953125 -26.53125 -5.953125q-25.296875 0 -25.296875 18.84375q0 7.6875 5.453125 12.53125q5.453125 4.828125 15.625 4.828125zm92.75293 -105.156265l30.5 0l0 15.875l1.984375 0q5.703125 -9.171875 16.109375 -14.5q10.421875 -5.34375 22.578125 -5.34375q22.8125 0 34.71875 13.890625q11.90625 13.890625 11.90625 37.95314l0 78.609375l-32.484375 0l0 -74.640625q0 -12.156265 -6.203125 -18.843765q-6.203125 -6.703125 -17.359375 -6.703125q-13.140625 0 -21.203125 10.171875q-8.0625 10.156265 -8.0625 25.531265l0 64.484375l-32.484375 0l0 -126.48439zm208.06763 130.45314q-19.09375 0 -34.21875 -8.546875q-15.125 -8.5625 -23.687561 -23.9375q-8.5625 -15.375 -8.5625 -34.71875q0 -19.343765 8.5625 -34.593765q8.562561 -15.265625 23.687561 -23.9375q15.125 -8.6875 34.21875 -8.6875q21.078125 0 36.203125 9.0625q15.140625 9.046875 21.828125 25.65625l-29.765625 12.40625q-7.921875 -16.859375 -28.265625 -16.859375q-14.875 0 -24.421875 10.171875q-9.546875 10.156265 -9.546875 26.781265q0 16.859375 9.546875 27.03125q9.546875 10.15625 24.421875 10.15625q20.578125 0 29.765625 -17.84375l29.5 12.890625q-8.171875 16.609375 -23.3125 25.796875q-15.125 9.171875 -35.953125 9.171875zm140.61389 0q-18.84375 0 -33.96875 -8.671875q-15.125 -8.6875 -23.6875 -23.9375q-8.5625 -15.25 -8.5625 -34.34375q0 -18.109375 8.4375 -33.60939q8.4375 -15.5 23.3125 -24.671875q14.875 -9.1875 33.234375 -9.1875q19.59375 0 33.71875 8.4375q14.140625 8.4375 21.453125 23.078125q7.328125 14.625 7.328125 32.468765q0 5.703125 -0.75 10.921875l-94.984375 0q2.484375 15.125 12.03125 22.9375q9.546875 7.8125 22.9375 7.8125q11.15625 0 19.21875 -4.828125q8.0625 -4.84375 12.765625 -13.03125l26.296875 12.890625q-19.34375 33.734375 -58.78125 33.734375zm30.015625 -82.578125q-0.5 -5.9531403 -4.34375 -11.781265q-3.84375 -5.828125 -10.671875 -9.671875q-6.8125 -3.84375 -15.984375 -3.84375q-11.65625 0 -19.96875 6.828125q-8.3125 6.8125 -12.03125 18.468765l63.0 0zm56.294678 -98.95314l32.484375 0l0 177.56252l-32.484375 0l0 -177.56252z" fill-rule="nonzero"/></g></svg>