<svg version="1.1" viewBox="0.0 0.0 1344.0 480.0" fill="none" stroke="none" stroke-linecap="square" stroke-miterlimit="10" xmlns:xlink="http://www.w3.org/1999/xlink" xmlns="http://www.w3.org/2000/svg"><clipPath id="g89df8b9461_1_0.0"><path d="m0 0l1344.0 0l0 480.0l-1344.0 0l0 -480.0z" clip-rule="nonzero"/></clipPath><g clip-path="url(#g89df8b9461_1_0.0)"><path fill="#cc0000" d="m0 0l1344.0 0l0 480.0l-1344.0 0z" fill-rule="evenodd"/><path fill="#000000" fill-opacity="0.0" d="m272.7244 90.50394l798.5513 0l0 298.99213l-798.5513 0z" fill-rule="evenodd"/><path fill="#eeeeee" d="m302.7359 160.02144l60.015625 0q27.765625 0 48.34375 11.15625q20.59375 11.15625 31.75 31.25q11.15625 20.078125 11.15625 46.375q0 26.281265 -11.15625 46.375015q-11.15625 20.09375 -31.75 31.25q-20.578125 11.15625 -48.34375 11.15625l-60.015625 0l0 -177.56252zm58.515625 145.81252q28.765625 0 43.890625 -15.25q15.140625 -15.25 15.140625 -41.781265q0 -26.53125 -15.140625 -41.78125q-15.125 -15.265625 -43.890625 -15.265625l-25.046875 0l0 114.07814l25.046875 0zm175.5852 35.71875q-18.84375 0 -33.96878 -8.671875q-15.125 -8.6875 -23.6875 -23.9375q-8.5625 -15.25 -8.5625 -34.34375q0 -18.109375 8.4375 -33.60939q8.4375 -15.5 23.3125 -24.671875q14.8750305 -9.1875 33.234406 -9.1875q19.59375 0 33.71875 8.4375q14.140625 8.4375 21.453125 23.078125q7.328125 14.625 7.328125 32.468765q0 5.703125 -0.75 10.921875l-94.984406 0q2.484375 15.125 12.0312805 22.9375q9.546875 7.8125 22.9375 7.8125q11.15625 0 19.21875 -4.828125q8.0625 -4.84375 12.765625 -13.03125l26.296875 12.890625q-19.34375 33.734375 -58.78125 33.734375zm30.015625 -82.578125q-0.5 -5.9531403 -4.34375 -11.781265q-3.84375 -5.828125 -10.671875 -9.671875q-6.8125 -3.84375 -15.984375 -3.84375q-11.65625 0 -19.96875 6.828125q-8.3125305 6.8125 -12.0312805 18.468765l63.00003 0zm56.294678 -98.95314l32.484375 0l0 177.56252l-32.484375 0l0 -177.56252zm122.505615 181.53127q-18.84375 0 -33.96875 -8.671875q-15.125 -8.6875 -23.6875 -23.9375q-8.5625 -15.25 -8.5625 -34.34375q0 -18.109375 8.4375 -33.60939q8.4375 -15.5 23.3125 -24.671875q14.875 -9.1875 33.234375 -9.1875q19.59375 0 33.71875 8.4375q14.140625 8.4375 21.453125 23.078125q7.328125 14.625 7.328125 32.468765q0 5.703125 -0.75 10.921875l-94.984375 0q2.484375 15.125 12.03125 22.9375q9.546875 7.8125 22.9375 7.8125q11.15625 0 19.21875 -4.828125q8.0625 -4.84375 12.765625 -13.03125l26.296875 12.890625q-19.34375 33.734375 -58.78125 33.734375zm30.015625 -82.578125q-0.5 -5.9531403 -4.34375 -11.781265q-3.84375 -5.828125 -10.671875 -9.671875q-6.8125 -3.84375 -15.984375 -3.84375q-11.65625 0 -19.96875 6.828125q-8.3125 6.8125 -12.03125 18.468765l63.0 0zm107.62158 80.59375q-9.421875 0 -17.359375 -2.84375q-7.9375 -2.859375 -12.890625 -7.828125q-11.65625 -11.15625 -11.65625 -31.734375l0 -58.281265l-22.078125 0l0 -27.78125l22.078125 0l0 -35.703125l32.484375 0l0 35.703125l31.0 0l0 27.78125l-31.0 0l0 52.32814q0 9.671875 4.21875 13.890625q3.46875 3.96875 11.90625 3.96875q4.71875 0 7.8125 -1.234375q3.09375 -1.25 8.0625 -4.21875l0 31.734375q-10.671875 4.21875 -22.578125 4.21875z" fill-rule="nonzero"/><path fill="#eeeeee" d="m991.17255 341.5527q-18.84375 0 -33.96875 -8.671875q-15.125 -8.6875 -23.6875 -23.9375q-8.5625 -15.25 -8.5625 -34.34375q0 -18.109375 8.4375 -33.60939q8.4375 -15.5 23.3125 -24.671875q14.875 -9.1875 33.234375 -9.1875q19.59375 0 33.71875 8.4375q14.140564 8.4375 21.453064 23.078125q7.328125 14.625 7.328125 32.468765q0 5.703125 -0.75 10.921875l-94.984314 0q2.484375 15.125 12.03125 22.9375q9.546875 7.8125 22.9375 7.8125q11.15625 0 19.21875 -4.828125q8.0625 -4.84375 12.765625 -13.03125l26.296814 12.890625q-19.34375 33.734375 -58.78119 33.734375zm30.015625 -82.578125q-0.5 -5.9531403 -4.34375 -11.781265q-3.84375 -5.828125 -10.671875 -9.671875q-6.8125 -3.84375 -15.984375 -3.84375q-11.65625 0 -19.96875 6.828125q-8.3125 6.8125 -12.03125 18.468765l63.0 0z" fill-rule="nonzero"/></g></svg>