<svg version="1.1" viewBox="0.0 0.0 620.0 140.0" fill="none" stroke="none" stroke-linecap="square" stroke-miterlimit="10" xmlns:xlink="http://www.w3.org/1999/xlink" xmlns="http://www.w3.org/2000/svg"><clipPath id="p.0"><path d="m0 0l620.0 0l0 140.0l-620.0 0l0 -140.0z" clip-rule="nonzero"/></clipPath><g clip-path="url(#p.0)"><path fill="#000000" fill-opacity="0.0" d="m0 0l620.0 0l0 140.0l-620.0 0z" fill-rule="evenodd"/><path fill="#ffffff" d="m-4.3307085 0l628.6614 0l0 136.7559l-628.6614 0z" fill-rule="evenodd"/><path stroke="#efefef" stroke-width="1.0" stroke-linejoin="round" stroke-linecap="butt" d="m-4.3307085 0l628.6614 0l0 136.7559l-628.6614 0z" fill-rule="evenodd"/><path fill="#3c78d8" d="m241.24385 98.4592q-7.53125 0 -13.296875 -4.234375q-5.75 -4.25 -8.0625 -12.0l10.15625 -4.0q1.203125 4.546875 4.078125 7.28125q2.875 2.71875 7.203125 2.71875q3.59375 0 6.15625 -1.796875q2.5625 -1.8125 2.5625 -5.015625q0 -3.1875 -2.4375 -5.234375q-2.4375 -2.046875 -8.6875 -4.359375l-3.515625 -1.28125q-5.515625 -1.921875 -9.4375 -5.875q-3.921875 -3.96875 -3.921875 -9.96875q0 -4.46875 2.3125 -8.140625q2.328125 -3.6875 6.5625 -5.8125q4.25 -2.125 9.609375 -2.125q7.75 0 12.234375 3.640625q4.4843597 3.640625 6.1562347 8.515625l-9.51561 4.0q-0.875 -2.640625 -3.078125 -4.4375q-2.203125 -1.796875 -5.640625 -1.796875q-3.515625 0 -5.796875 1.640625q-2.28125 1.640625 -2.28125 4.28125q0 2.5625 2.15625 4.359375q2.15625 1.796875 7.125 3.484375l3.59375 1.1875q7.4375 2.5625 11.39061 6.765625q3.96875 4.203125 3.96875 11.0q0 5.609375 -2.875 9.484375q-2.8749847 3.875 -7.4062347 5.796875q-4.515625 1.921875 -9.3125 1.921875z" fill-rule="nonzero"/><path fill="#cc0000" d="m282.1138 98.4592q-6.46875 0 -10.640625 -3.796875q-4.15625 -3.796875 -4.15625 -9.96875q0 -4.078125 2.15625 -7.1875q2.171875 -3.125 5.921875 -4.796875q3.765625 -1.6875 8.328125 -1.6875q6.3125 0 10.796875 1.84375l0 -1.765625q0 -3.359375 -2.53125 -5.4375q-2.515625 -2.078125 -6.75 -2.078125q-2.875 0 -5.5625 1.328125q-2.671875 1.3125 -4.4375 3.46875l-6.71875 -5.28125q2.953125 -3.84375 7.4375 -5.921875q4.484375 -2.078125 9.765625 -2.078125q9.359375 0 14.234375 4.328125q4.875 4.3125 4.875 12.625l0 25.125l-10.3125 0l0 -4.15625l-0.640625 0q-1.84375 2.390625 -4.84375 3.921875q-3.0 1.515625 -6.921875 1.515625zm2.484375 -8.15625q4.5625 0 7.234375 -2.921875q2.6875 -2.921875 2.6875 -6.84375q-4.078125 -1.921875 -8.5625 -1.921875q-8.15625 0 -8.15625 6.078125q0 2.484375 1.75 4.046875q1.765625 1.5625 5.046875 1.5625z" fill-rule="nonzero"/><path fill="#ffab40" d="m309.9625 56.381073l11.921875 0l10.3125 26.5625l0.640625 0l10.484375 -26.5625l11.765625 0l-17.453125 40.796875l-10.390625 0l-17.28125 -40.796875z" fill-rule="nonzero"/><path fill="#6aa84f" d="m379.87433 98.4592q-6.078125 0 -10.953125 -2.796875q-4.875 -2.796875 -7.640625 -7.71875q-2.765625 -4.921875 -2.765625 -11.078125q0 -5.84375 2.71875 -10.84375q2.71875 -5.0 7.515625 -7.953125q4.8125 -2.96875 10.734375 -2.96875q6.3125 0 10.875 2.71875q4.5625 2.71875 6.921875 7.4375q2.359375 4.71875 2.359375 10.484375q0 1.84375 -0.234375 3.515625l-30.640625 0q0.796875 4.875 3.875 7.40625q3.078125 2.515625 7.40625 2.515625q3.59375 0 6.1875 -1.5625q2.609375 -1.5625 4.125 -4.203125l8.484375 4.171875q-6.25 10.875 -18.96875 10.875zm9.6875 -26.640625q-0.15625 -1.921875 -1.40625 -3.796875q-1.234375 -1.890625 -3.4375 -3.125q-2.203125 -1.234375 -5.15625 -1.234375q-3.765625 0 -6.453125 2.203125q-2.671875 2.1875 -3.875 5.953125l20.328125 0z" fill-rule="nonzero"/></g></svg>