<svg version="1.1" viewBox="0.0 0.0 960.0 540.0" fill="none" stroke="none" stroke-linecap="square" stroke-miterlimit="10" xmlns:xlink="http://www.w3.org/1999/xlink" xmlns="http://www.w3.org/2000/svg"><clipPath id="g8935309305_0_0.0"><path d="m0 0l960.0 0l0 540.0l-960.0 0l0 -540.0z" clip-rule="nonzero"/></clipPath><g clip-path="url(#g8935309305_0_0.0)"><path fill="#ffffff" d="m0 0l960.0 0l0 540.0l-960.0 0z" fill-rule="evenodd"/><path fill="#000000" fill-opacity="0.0" d="m176.15749 143.51181l607.68506 0l0 252.97638l-607.68506 0z" fill-rule="evenodd"/><path fill="#3c78d8" d="m298.29367 347.71494q-18.796875 0 -33.203125 -10.59375q-14.39061 -10.609375 -20.187485 -30.015625l25.39061 -10.0q3.0 11.40625 10.203125 18.203125q7.203125 6.796875 18.0 6.796875q9.0 0 15.390625 -4.5q6.40625 -4.5 6.40625 -12.5q0 -8.0 -6.09375 -13.09375q-6.09375 -5.09375 -21.703125 -10.90625l-8.796875 -3.1875q-13.796875 -4.8125 -23.609375 -14.703125q-9.79686 -9.90625 -9.79686 -24.90625q0 -11.203125 5.7968597 -20.390625q5.8125 -9.203125 16.40625 -14.5q10.609375 -5.3125 24.0 -5.3125q19.40625 0 30.59375 9.109375q11.203125 9.09375 15.40625 21.296875l-23.796875 10.0q-2.203125 -6.59375 -7.703125 -11.09375q-5.5 -4.5 -14.09375 -4.5q-8.796875 0 -14.5 4.09375q-5.703125 4.09375 -5.703125 10.703125q0 6.390625 5.390625 10.890625q5.40625 4.5 17.8125 8.703125l9.0 3.0q18.59375 6.40625 28.484375 16.90625q9.90625 10.5 9.90625 27.5q0 14.0 -7.203125 23.703125q-7.1875 9.6875 -18.5 14.5q-11.296875 4.796875 -23.296875 4.796875z" fill-rule="nonzero"/><path fill="#cc0000" d="m413.7031 346.10556q-7.609375 0 -14.015625 -2.296875q-6.390625 -2.296875 -10.390625 -6.296875q-9.390625 -9.0 -9.390625 -25.59375l0 -47.0l-17.8125 0l0 -22.40625l17.8125 0l0 -28.796875l26.1875 0l0 28.796875l25.0 0l0 22.40625l-25.0 0l0 42.1875q0 7.8125 3.40625 11.203125q2.796875 3.203125 9.59375 3.203125q3.8125 0 6.3125 -1.0q2.5 -1.0 6.5 -3.40625l0 25.609375q-8.609375 3.390625 -18.203125 3.390625z" fill-rule="nonzero"/><path fill="#ffab40" d="m484.09998 347.71494q-16.203125 0 -26.609375 -9.5q-10.390625 -9.5 -10.390625 -24.90625q0 -10.203125 5.390625 -18.0q5.40625 -7.796875 14.796875 -12.0q9.40625 -4.203125 20.8125 -4.203125q15.796875 0 27.0 4.609375l0 -4.40625q0 -8.390625 -6.296875 -13.59375q-6.296875 -5.203125 -16.90625 -5.203125q-7.203125 0 -13.90625 3.296875q-6.6875 3.296875 -11.09375 8.703125l-16.796875 -13.203125q7.40625 -9.59375 18.59375 -14.796875q11.203125 -5.203125 24.40625 -5.203125q23.40625 0 35.59375 10.8125q12.203125 10.796875 12.203125 31.59375l0 62.796875l-25.796875 0l0 -10.40625l-1.59375 0q-4.609375 6.0 -12.109375 9.8125q-7.5 3.796875 -17.296875 3.796875zm6.203125 -20.40625q11.390625 0 18.09375 -7.296875q6.703125 -7.296875 6.703125 -17.09375q-10.203125 -4.8125 -21.40625 -4.8125q-20.390625 0 -20.390625 15.203125q0 6.203125 4.390625 10.109375q4.40625 3.890625 12.609375 3.890625z" fill-rule="nonzero"/><path fill="#6aa84f" d="m565.0969 242.51181l24.609375 0l0 13.59375l1.59375 0q3.796875 -7.1875 11.796875 -11.890625q8.0 -4.703125 17.609375 -4.703125q7.0 0 12.796875 2.203125l0 26.203125q-5.40625 -2.0 -9.109375 -2.90625q-3.6875 -0.90625 -7.890625 -0.90625q-11.609375 0 -18.40625 8.40625q-6.796875 8.40625 -6.796875 21.203125l0 50.796875l-26.203125 0l0 -102.0z" fill-rule="nonzero"/><path fill="#3c78d8" d="m694.9032 346.10556q-7.609375 0 -14.015625 -2.296875q-6.390625 -2.296875 -10.390625 -6.296875q-9.390625 -9.0 -9.390625 -25.59375l0 -47.0l-17.8125 0l0 -22.40625l17.8125 0l0 -28.796875l26.1875 0l0 28.796875l25.0 0l0 22.40625l-25.0 0l0 42.1875q0 7.8125 3.40625 11.203125q2.796875 3.203125 9.59375 3.203125q3.8125 0 6.3125 -1.0q2.5 -1.0 6.5 -3.40625l0 25.609375q-8.609375 3.390625 -18.203125 3.390625z" fill-rule="nonzero"/></g></svg>