<svg version="1.1" viewBox="0.0 0.0 1536.0 480.0" fill="none" stroke="none" stroke-linecap="square" stroke-miterlimit="10" xmlns:xlink="http://www.w3.org/1999/xlink" xmlns="http://www.w3.org/2000/svg"><clipPath id="g8935309305_0_0.0"><path d="m0 0l1536.0 0l0 480.0l-1536.0 0l0 -480.0z" clip-rule="nonzero"/></clipPath><g clip-path="url(#g8935309305_0_0.0)"><path fill="#000000" d="m0 0l1536.0 0l0 480.0l-1536.0 0z" fill-rule="evenodd"/><path fill="#000000" fill-opacity="0.0" d="m208.98268 90.51269l1118.0472 0l0 298.99213l-1118.0472 0z" fill-rule="evenodd"/><path fill="#3c78d8" d="m542.7007 341.56143q-23.3125 0 -41.171906 -13.140625q-17.859375 -13.140625 -25.046875 -37.203125l31.5 -12.40625q3.71875 14.140625 12.6406555 22.578125q8.9375 8.421875 22.328125 8.421875q11.15625 0 19.09375 -5.578125q7.9375 -5.578125 7.9375 -15.5q0 -9.921875 -7.5625 -16.234375q-7.5625 -6.328125 -26.90625 -13.515625l-10.921875 -3.96875q-17.109406 -5.953125 -29.265656 -18.234375q-12.140625 -12.28125 -12.140625 -30.875q0 -13.890625 7.1875 -25.296875q7.1875 -11.40625 20.328125 -17.96875q13.1562805 -6.578125 29.765656 -6.578125q24.0625 0 37.9375 11.28125q13.890625 11.28125 19.109375 26.40625l-29.515625 12.40625q-2.734375 -8.1875 -9.5625 -13.765625q-6.8125 -5.578125 -17.46875 -5.578125q-10.921875 0 -17.984375 5.09375q-7.0625 5.078125 -7.0625 13.25q0 7.9375 6.6875 13.515625q6.703125 5.578125 22.078125 10.796875l11.15625 3.71875q23.0625 7.9375 35.328125 20.953125q12.28125 13.015625 12.28125 34.09375q0 17.375 -8.921875 29.40625q-8.921875 12.015625 -22.9375 17.96875q-14.015625 5.953125 -28.890625 5.953125z" fill-rule="nonzero"/><path fill="#cc0000" d="m685.7882 339.57706q-9.421875 0 -17.359375 -2.84375q-7.9375 -2.859375 -12.890625 -7.828125q-11.65625 -11.15625 -11.65625 -31.734375l0 -58.28125l-22.078125 0l0 -27.78125l22.078125 0l0 -35.703125l32.484375 0l0 35.703125l31.0 0l0 27.78125l-31.0 0l0 52.328125q0 9.671875 4.21875 13.890625q3.46875 3.96875 11.90625 3.96875q4.71875 0 7.8125 -1.234375q3.09375 -1.25 8.0625 -4.21875l0 31.734375q-10.671875 4.21875 -22.578125 4.21875z" fill-rule="nonzero"/><path fill="#ffab40" d="m773.0928 341.56143q-20.09375 0 -32.984375 -11.78125q-12.890625 -11.78125 -12.890625 -30.875q0 -12.65625 6.6875 -22.328125q6.703125 -9.671875 18.359375 -14.875q11.65625 -5.203125 25.78125 -5.203125q19.59375 0 33.484375 5.703125l0 -5.453125q0 -10.421875 -7.8125 -16.859375q-7.8125 -6.453125 -20.953125 -6.453125q-8.9375 0 -17.25 4.09375q-8.296875 4.09375 -13.75 10.78125l-20.828125 -16.359375q9.171875 -11.90625 23.0625 -18.359375q13.890625 -6.453125 30.25 -6.453125q29.015625 0 44.140625 13.40625q15.125 13.390625 15.125 39.171875l0 77.875l-31.984375 0l0 -12.890625l-1.984375 0q-5.703125 7.4375 -15.0 12.15625q-9.296875 4.703125 -21.453125 4.703125zm7.6875 -25.296875q14.140625 0 22.4375 -9.046875q8.3125 -9.0625 8.3125 -21.203125q-12.640625 -5.953125 -26.53125 -5.953125q-25.296875 0 -25.296875 18.84375q0 7.6875 5.453125 12.53125q5.453125 4.828125 15.625 4.828125z" fill-rule="nonzero"/><path fill="#6aa84f" d="m873.5332 211.1083l30.5 0l0 16.875l1.984375 0q4.71875 -8.9375 14.625 -14.765625q9.921875 -5.828125 21.828125 -5.828125q8.6875 0 15.875 2.734375l0 32.484375q-6.703125 -2.484375 -11.296875 -3.59375q-4.578125 -1.125 -9.78125 -1.125q-14.390625 0 -22.828125 10.421875q-8.421875 10.421875 -8.421875 26.296875l0 62.984375l-32.484375 0l0 -126.484375z" fill-rule="nonzero"/><path fill="#3c78d8" d="m1034.4761 339.57706q-9.421875 0 -17.359375 -2.84375q-7.9375 -2.859375 -12.890625 -7.828125q-11.65625 -11.15625 -11.65625 -31.734375l0 -58.28125l-22.078125 0l0 -27.78125l22.078125 0l0 -35.703125l32.484375 0l0 35.703125l31.0 0l0 27.78125l-31.0 0l0 52.328125q0 9.671875 4.21875 13.890625q3.46875 3.96875 11.90625 3.96875q4.71875 0 7.8125 -1.234375q3.09375 -1.25 8.0625 -4.21875l0 31.734375q-10.671875 4.21875 -22.578125 4.21875z" fill-rule="nonzero"/></g></svg>