<svg version="1.1" viewBox="0.0 0.0 1344.0 480.0" fill="none" stroke="none" stroke-linecap="square" stroke-miterlimit="10" xmlns:xlink="http://www.w3.org/1999/xlink" xmlns="http://www.w3.org/2000/svg"><clipPath id="g8a8649df56_0_5.0"><path d="m0 0l1344.0 0l0 480.0l-1344.0 0l0 -480.0z" clip-rule="nonzero"/></clipPath><g clip-path="url(#g8a8649df56_0_5.0)"><path fill="#efefef" d="m0 0l1344.0 0l0 480.0l-1344.0 0z" fill-rule="evenodd"/><path fill="#000000" fill-opacity="0.0" d="m235.5433 90.50394l872.9133 0l0 298.99213l-872.9133 0z" fill-rule="evenodd"/><path fill="#3c78d8" d="m321.4544 341.5527q-23.3125 0 -41.171875 -13.140625q-17.859375 -13.140625 -25.046875 -37.203125l31.5 -12.40625q3.71875 14.140625 12.640625 22.578125q8.9375 8.421875 22.328125 8.421875q11.15625 0 19.09375 -5.578125q7.9375 -5.578125 7.9375 -15.5q0 -9.921875 -7.5625 -16.234375q-7.5625 -6.328125 -26.90625 -13.515625l-10.921875 -3.9687653q-17.109375 -5.953125 -29.265625 -18.234375q-12.140625 -12.28125 -12.140625 -30.875q0 -13.890625 7.1875 -25.296875q7.1875 -11.40625 20.328125 -17.96875q13.15625 -6.578125 29.765625 -6.578125q24.0625 0 37.9375 11.28125q13.890625 11.28125 19.109375 26.40625l-29.515625 12.40625q-2.734375 -8.1875 -9.5625 -13.765625q-6.8125 -5.578125 -17.46875 -5.578125q-10.921875 0 -17.984375 5.09375q-7.0625 5.078125 -7.0625 13.25q0 7.9375 6.6875 13.515625q6.703125 5.578125 22.078125 10.796875l11.15625 3.71875q23.0625 7.9375 35.328125 20.953125q12.28125 13.01564 12.28125 34.093765q0 17.375 -8.921875 29.40625q-8.921875 12.015625 -22.9375 17.96875q-14.015625 5.953125 -28.890625 5.953125z" fill-rule="nonzero"/><path fill="#cc0000" d="m455.12012 341.5527q-22.8125 0 -34.71875 -14.125q-11.90625 -14.140625 -11.90625 -39.4375l0 -76.89064l32.5 0l0 72.92189q0 12.890625 6.1875 20.203125q6.203125 7.3125 16.375 7.3125q13.890625 0 22.0625 -10.15625q8.1874695 -10.171875 8.1874695 -25.796875l0 -64.48439l32.50003 0l0 126.48439l-30.515656 0l0 -15.875l-1.984375 0q-5.7030945 9.171875 -15.9999695 14.515625q-10.28125 5.328125 -22.6875 5.328125z" fill-rule="nonzero"/><path fill="#ffab40" d="m628.46893 341.5527q-12.890625 0 -22.9375 -5.453125q-10.046875 -5.453125 -15.0 -13.640625l-1.984375 0l0 15.125l-30.5 0l0 -177.56252l32.484375 0l0 48.609375l-1.984375 17.84375l1.984375 0q5.203125 -8.171875 15.125 -13.75q9.921875 -5.59375 22.8125 -5.59375q17.125 0 31.125 8.5625q14.015625 8.546875 21.953125 23.9375q7.9375 15.375 7.9375 34.718765q0 19.59375 -7.9375 34.84375q-7.9375 15.25 -21.953125 23.8125q-14.0 8.546875 -31.125 8.546875zm-5.703125 -30.015625q9.1875 0 17.109375 -4.703125q7.9375 -4.71875 12.65625 -13.140625q4.71875 -8.4375 4.71875 -19.34375q0 -10.921875 -4.71875 -19.343765q-4.71875 -8.4375 -12.65625 -13.015625q-7.921875 -4.59375 -17.109375 -4.59375q-8.921875 0 -16.859375 4.59375q-7.9375 4.578125 -12.65625 13.015625q-4.703125 8.42189 -4.703125 19.343765q0 10.90625 4.703125 19.34375q4.71875 8.421875 12.65625 13.140625q7.9375 4.703125 16.859375 4.703125z" fill-rule="nonzero"/><path fill="#6aa84f" d="m714.53503 211.09956l30.5 0l0 15.875l1.984375 0q5.953125 -9.171875 16.0 -14.5q10.046875 -5.34375 22.4375 -5.34375q13.390625 0 23.3125 6.328125q9.921875 6.328125 14.140625 16.0q6.203125 -9.921875 16.984375 -16.125q10.796875 -6.203125 25.421875 -6.203125q21.578125 0 32.859375 13.28125q11.28125 13.265625 11.28125 35.82814l0 81.34375l-32.234375 0l0 -75.390625q0 -11.906265 -5.578125 -18.343765q-5.578125 -6.453125 -15.5 -6.453125q-12.65625 0 -20.21875 10.046875q-7.5625 10.031265 -7.5625 26.406265l0 63.734375l-32.484375 0l0 -75.390625q0 -11.906265 -5.828125 -18.343765q-5.828125 -6.453125 -16.5 -6.453125q-11.90625 0 -19.21875 10.046875q-7.3125 10.031265 -7.3125 26.406265l0 63.734375l-32.484375 0l0 -126.48439z" fill-rule="nonzero"/><path fill="#cc0000" d="m958.80676 197.20894q-8.671875 0 -14.875 -6.1875q-6.203125 -6.203125 -6.203125 -14.890625q0 -8.671875 6.203125 -14.75q6.203125 -6.078125 14.875 -6.078125q8.6875 0 14.765625 6.078125q6.078125 6.078125 6.078125 14.75q0 8.6875 -6.078125 14.890625q-6.078125 6.1875 -14.765625 6.1875zm-16.359375 13.890625l32.484375 0l0 126.48439l-32.484375 0l0 -126.48439z" fill-rule="nonzero"/><path fill="#3c78d8" d="m1063.7098 339.56833q-9.421875 0 -17.359375 -2.84375q-7.9375 -2.859375 -12.890625 -7.828125q-11.65625 -11.15625 -11.65625 -31.734375l0 -58.281265l-22.078125 0l0 -27.78125l22.078125 0l0 -35.703125l32.484375 0l0 35.703125l31.0 0l0 27.78125l-31.0 0l0 52.32814q0 9.671875 4.21875 13.890625q3.46875 3.96875 11.90625 3.96875q4.71875 0 7.8125 -1.234375q3.09375 -1.25 8.0625 -4.21875l0 31.734375q-10.671875 4.21875 -22.578125 4.21875z" fill-rule="nonzero"/></g></svg>