<svg version="1.1" viewBox="0.0 0.0 888.0 312.0" fill="none" stroke="none" stroke-linecap="square" stroke-miterlimit="10" xmlns:xlink="http://www.w3.org/1999/xlink" xmlns="http://www.w3.org/2000/svg"><clipPath id="p.0"><path d="m0 0l888.0 0l0 312.0l-888.0 0l0 -312.0z" clip-rule="nonzero"/></clipPath><g clip-path="url(#p.0)"><path fill="#000000" fill-opacity="0.0" d="m0 0l888.0 0l0 312.0l-888.0 0z" fill-rule="evenodd"/><path fill="#ffffff" d="m0 0l889.07086 0l0 307.74802l-889.07086 0z" fill-rule="evenodd"/><path stroke="#ffffff" stroke-width="1.0" stroke-linejoin="round" stroke-linecap="butt" d="m0 0l889.07086 0l0 307.74802l-889.07086 0z" fill-rule="evenodd"/><path fill="#000000" fill-opacity="0.0" d="m28.479002 26.598425l546.86615 0l0 252.50394l-546.86615 0z" fill-rule="evenodd"/><path fill="#000000" d="m106.885254 230.80154q-16.8125 0 -29.3125 -7.203125q-12.5 -7.203125 -19.40625 -20.796875q-6.890625 -13.609375 -6.890625 -32.203125l0 -86.20312l26.796875 0l0 87.79687q0 14.8125 7.5 23.90625q7.5 9.09375 21.3125 9.09375q13.796875 0 21.296875 -9.09375q7.5 -9.09375 7.5 -23.90625l0 -87.79687l26.796875 0l0 86.20312q0 17.796875 -6.796875 31.40625q-6.796875 13.59375 -19.40625 21.203125q-12.59375 7.59375 -29.390625 7.59375zm82.19066 -105.20312l24.609375 0l0 12.796867l1.59375 0q4.59375 -7.390625 13.0 -11.687492q8.40625 -4.3125 18.203125 -4.3125q18.39061 0 27.98436 11.203117q9.609375 11.203125 9.609375 30.59375l0 63.40625l-26.203125 0l0 -60.203125q0 -9.796875 -4.9999847 -15.1875q-5.0 -5.40625 -14.0 -5.40625q-10.59375 0 -17.09375 8.203125q-6.5 8.1875 -6.5 20.59375l0 52.0l-26.203125 0l0 -101.99999zm134.59691 -11.203125q-7.0 0 -12.0 -5.0q-5.0 -5.0 -5.0 -12.0q0 -7.0 5.0 -11.890625q5.0 -4.90625 12.0 -4.90625q7.0 0 11.90625 4.90625q4.90625 4.890625 4.90625 11.890625q0 7.0 -4.90625 12.0q-4.90625 5.0 -11.90625 5.0zm-13.1875 11.203125l26.1875 0l0 101.99999l-26.1875 0l0 -101.99999zm96.796906 103.59374q-7.609375 0 -14.015625 -2.296875q-6.390625 -2.296875 -10.390625 -6.296875q-9.390625 -9.0 -9.390625 -25.59375l0 -47.0l-17.8125 0l0 -22.406242l17.8125 0l0 -28.796875l26.1875 0l0 28.796875l25.0 0l0 22.406242l-25.0 0l0 42.1875q0 7.8125 3.40625 11.203125q2.796875 3.203125 9.59375 3.203125q3.8125 0 6.3125 -1.0q2.5 -1.0 6.5 -3.40625l0 25.609375q-8.609375 3.390625 -18.203125 3.390625zm83.390625 1.609375q-15.1875 0 -27.390625 -7.0q-12.203125 -7.0 -19.109375 -19.296875q-6.890625 -12.3125 -6.890625 -27.703125q0 -14.609375 6.796875 -27.109375q6.796875 -12.5 18.796875 -19.890625q12.0 -7.4062424 26.796875 -7.4062424q15.8125 0 27.203125 6.8124924q11.40625 6.796875 17.296875 18.59375q5.90625 11.796875 5.90625 26.203125q0 4.59375 -0.59375 8.796875l-76.609375 0q2.0 12.203125 9.703125 18.5q7.703125 6.296875 18.5 6.296875q9.0 0 15.5 -3.890625q6.5 -3.90625 10.296875 -10.515625l21.203125 10.40625q-15.59375 27.203125 -47.40625 27.203125zm24.203125 -66.609375q-0.390625 -4.796875 -3.5 -9.484375q-3.09375 -4.703125 -8.59375 -7.796875q-5.5 -3.109375 -12.90625 -3.109375q-9.390625 0 -16.09375 5.5q-6.703125 5.5 -9.703125 14.890625l50.796875 0z" fill-rule="nonzero"/><path fill="#000000" fill-opacity="0.0" d="m552.01447 146.4462l341.51178 0l0 118.92914l-341.51178 0z" fill-rule="evenodd"/><path fill="#000000" d="m587.9207 230.92056q-4.015625 0 -7.15625 -1.703125q-3.125 -1.703125 -4.671875 -4.25l-0.625 0l0 4.71875l-9.5 0l0 -55.359375l10.125 0l0 15.15625l-0.625 5.5625l0.625 0q1.625 -2.546875 4.71875 -4.28125q3.09375 -1.75 7.109375 -1.75q5.34375 0 9.703125 2.671875q4.375 2.65625 6.84375 7.453125q2.484375 4.796875 2.484375 10.828125q0 6.109375 -2.484375 10.875q-2.46875 4.75 -6.84375 7.421875q-4.359375 2.65625 -9.703125 2.65625zm-1.78125 -9.359375q2.875 0 5.34375 -1.46875q2.46875 -1.46875 3.9375 -4.09375q1.46875 -2.625 1.46875 -6.03125q0 -3.40625 -1.46875 -6.03125q-1.46875 -2.625 -3.9375 -4.046875q-2.46875 -1.4375 -5.34375 -1.4375q-2.78125 0 -5.25 1.4375q-2.46875 1.421875 -3.953125 4.046875q-1.46875 2.625 -1.46875 6.03125q0 3.40625 1.46875 6.03125q1.484375 2.625 3.953125 4.09375q2.46875 1.46875 5.25 1.46875zm39.372437 6.265625l-16.625 -37.578125l11.515625 0l10.203125 24.515625l0.625 0l9.8125 -24.515625l11.296875 0l-24.359375 56.140625l-10.90625 0l8.4375 -18.5625zm27.445679 1.859375l0 0z" fill-rule="nonzero"/><path fill="#4a86e8" d="m694.09924 230.92056q-7.265625 0 -12.84375 -4.09375q-5.5625 -4.09375 -7.8125 -11.59375l9.828125 -3.875q1.15625 4.40625 3.9375 7.046875q2.796875 2.625 6.96875 2.625q3.46875 0 5.9375 -1.734375q2.484375 -1.75 2.484375 -4.84375q0 -3.09375 -2.359375 -5.0625q-2.359375 -1.96875 -8.390625 -4.21875l-3.390625 -1.234375q-5.34375 -1.859375 -9.140625 -5.6875q-3.78125 -3.828125 -3.78125 -9.625q0 -4.328125 2.234375 -7.875q2.25 -3.5625 6.34375 -5.609375q4.109375 -2.0625 9.28125 -2.0625q7.5 0 11.828125 3.53125q4.34375 3.515625 5.96875 8.234375l-9.203125 3.859375q-0.859375 -2.546875 -2.984375 -4.28125q-2.125 -1.75 -5.453125 -1.75q-3.40625 0 -5.609375 1.59375q-2.203125 1.578125 -2.203125 4.125q0 2.484375 2.09375 4.21875q2.09375 1.734375 6.875 3.359375l3.484375 1.15625q7.1875 2.484375 11.015625 6.546875q3.828125 4.046875 3.828125 10.625q0 5.421875 -2.78125 9.171875q-2.78125 3.75 -7.15625 5.609375q-4.359375 1.84375 -9.0 1.84375z" fill-rule="nonzero"/><path fill="#cc0000" d="m734.14557 184.21744l-15.453125 0l0 -9.890625l41.359375 0l0 9.890625l-15.453125 0l0 45.46875l-10.453125 0l0 -45.46875z" fill-rule="nonzero"/><path fill="#f1c232" d="m768.41144 174.32681l35.109375 0l0 9.890625l-24.671875 0l0 12.84375l22.1875 0l0 9.890625l-22.1875 0l0 12.84375l24.671875 0l0 9.890625l-35.109375 0l0 -55.359375z" fill-rule="nonzero"/><path fill="#6aa84f" d="m814.2671 174.32681l19.484375 0q5.265625 0 9.59375 2.203125q4.328125 2.203125 6.796875 6.1875q2.484375 3.96875 2.484375 9.078125q0 5.109375 -2.484375 9.125q-2.46875 4.015625 -6.796875 6.21875q-4.328125 2.203125 -9.59375 2.203125l-9.046875 0l0 20.34375l-10.4375 0l0 -55.359375zm19.796875 25.125q3.859375 0 6.0625 -2.234375q2.203125 -2.25 2.203125 -5.421875q0 -3.171875 -2.203125 -5.375q-2.203125 -2.203125 -6.0625 -2.203125l-9.359375 0l0 15.234375l9.359375 0z" fill-rule="nonzero"/></g></svg>